<svg t="1640621030122" class="icon" viewBox="0 0 1024 1024" version="1.1" xmlns="http://www.w3.org/2000/svg" p-id="61435" width="128" height="128">
  <path d="M511.888 59.897q92.934 0 174.85 35.449t142.754 96.288 96.288 142.754 35.449 174.85q0 93.893-35.449 175.808T829.492 827.8t-142.754 96.288-174.85 35.449-174.85-35.449T194.284 827.8 97.996 685.046 62.547 509.238q0-92.934 35.449-174.85t96.288-142.754 142.754-96.288 174.85-35.449z m122.634 573.892q2.874-3.831-2.874-9.581t-13.413-12.934-13.413-14.85-3.831-14.371q4.791-15.329 3.353-22.515t-9.102-9.581-22.036-1.916-34.491 0.479q-10.539 0-17.245 0.958t-12.455 1.437-12.455 0.958-15.329-0.479q-13.413-0.958-20.599-4.791t-13.413-7.665-15.808-6.707-27.785-3.833q-25.868-0.958-36.886-2.395t-15.808-2.874-7.665-1.916-11.497-0.479q-8.623 0.958-26.347 8.623t-35.929 17.724-31.617 20.599-13.413 17.245q0 19.162 2.395 30.659t6.707 17.724 9.102 10.06 9.581 8.623 12.934 6.707 17.724 2.395 17.724 2.395 12.934 6.707q9.581 11.497 20.121 9.581t18.683-6.228 13.413-3.353 6.228 18.203q0 7.665 2.874 11.497t7.665 5.749l11.497 5.749q6.707 3.833 14.371 10.539 7.665 7.665 5.27 14.371t-7.186 12.934-9.102 13.413 0.479 13.892q6.707 10.539 14.371 15.329t14.85 8.144 12.934 7.665 7.665 13.892q0 2.874 6.707 11.017t12.934 16.766 10.06 14.371-1.916 4.791q11.497 1.916 24.431 1.916t16.766-4.791l1.916-1.916v-0.958l2.874-0.958q1.916-0.958 5.27-2.395t9.102-6.228q11.497-7.665 22.036-20.121t18.203-27.306 12.934-30.18 7.186-28.743q1.916-12.455 6.228-18.203t7.665-10.06 5.749-11.497-0.479-24.431q-2.874-22.036 5.27-32.096t13.892-16.766z m94.851 150.421q13.413-16.287 13.892-26.827t-22.515-16.287q-23.952-5.749-34.012-6.228t-18.683 10.06-12.455 21.557 1.916 30.18q2.874 8.623 4.791 13.892t4.791 6.707 8.623 0.958 16.287-3.353q11.497-2.874 22.036-13.413t15.329-17.245z m25.868-279.762q6.707-6.707 22.515-10.06t32.096-8.623 28.743-14.85 13.413-26.827 0-31.617-5.749-28.743-12.934-30.18-20.599-35.929q-13.413-21.078-24.431-35.449t-21.557-24.431-22.036-18.203-25.868-16.766q-15.329-8.623-30.18-18.683t-32.096-13.413-37.365 4.313-45.988 33.532l-16.287 17.245q-10.539 9.581-22.036 18.203t-22.036 14.85-19.162 6.228q-7.665 0-23.952 1.916t-33.053 9.581-28.743 21.557-10.06 36.886q0.958 25.868 9.102 33.532t21.078 8.623 30.659 1.916 37.844 12.455q23.952 5.749 45.03 11.497 18.203 4.791 36.886 11.977t31.138 14.85q14.371 8.623 11.497 22.515t-10.06 28.263-11.977 27.785 5.749 21.078q14.371 10.539 21.078 13.413t14.371 1.437 21.078-4.313 41.197-2.874q-7.665 0-2.874-5.749t14.85-14.371 21.557-17.724 19.162-14.85z" p-id="61436" fill="#ffffff"></path>
</svg>