<svg t="1640622597147" class="icon" viewBox="0 0 1024 1024" version="1.1" xmlns="http://www.w3.org/2000/svg" p-id="101677" width="128" height="128">
  <path d="M402.751488 146.751488l-320 320.00000001c-24.991744 24.992768-24.991744 65.50528 0 90.496l320 320c24.992768 24.992768 65.50528 24.992768 90.496 0 24.992768-24.991744 24.992768-65.503232 0-90.496L282.496 576.00000001 896 576c35.359744 0 64-28.640256 64-64s-28.640256-64-64-64l-613.504-1e-8L493.248512 237.247488C505.728 224.768 512 208.384 512 192s-6.240256-32.768-18.752512-45.248512c-24.991744-24.991744-65.503232-24.991744-90.496 0z" p-id="101678" fill="#ffffff"></path>
</svg>