<svg t="1640622045301" class="icon" viewBox="0 0 2579 1024" version="1.1" xmlns="http://www.w3.org/2000/svg" p-id="88381" width="128" height="128">
  <path d="M2377.885538 0.098462a86.331077 86.331077 0 0 1 86.252308 82.86523l0.078769 3.465846V290.461538h39.24677a62.779077 62.779077 0 0 1 62.779077 62.779077v313.895385a62.779077 62.779077 0 0 1-62.779077 62.779077h-39.24677v204.051692a86.331077 86.331077 0 0 1-82.845538 86.252308l-3.485539 0.059077H86.449231a86.331077 86.331077 0 0 1-86.252308-82.845539l-0.078769-3.465846V86.429538A86.331077 86.331077 0 0 1 82.963692 0.177231l3.465846-0.078769h2291.456z m0 47.084307H86.449231c-20.676923 0-37.809231 16.049231-39.168 36.667077l-0.078769 2.579692v847.537231c0 20.676923 16.049231 37.809231 36.667076 39.148308l2.579693 0.078769h2291.456c20.676923 0 37.809231-16.029538 39.168-36.667077l0.078769-2.56V86.429538c0-20.676923-16.029538-37.809231-36.667077-39.168l-2.56-0.078769z" fill="#ffffff" p-id="88382"></path>
</svg>