<svg t="1640622282902" class="icon" viewBox="0 0 1024 1024" version="1.1" xmlns="http://www.w3.org/2000/svg" p-id="91549" width="128" height="128">
  <path d="M977.42696297 271.94405925c13.34992592 13.71401482 20.14625185 29.97665185 20.14625185 49.03063705 0 18.93262222-6.79632592 35.31662222-20.14625185 49.03063703L760.0658963 586.75958518l81.31318518 81.31318519-86.65315556 86.77451852c-58.86103703 58.86103703-129.25155555 92.59994075-211.05019259 100.97398519-81.79863703 8.49540741-156.19413333-9.70903703-222.94376296-54.37060741L124.60942222 997.45185185H26.54814815v-98.06127407l196.12254815-196.12254815c-44.78293333-66.74962963-62.86601482-141.14512592-54.37060741-222.94376296s42.11294815-152.06779259 101.09534814-211.05019259l86.65315556-86.65315556 81.31318519 81.31318518 216.75425185-217.2397037c13.71401482-13.34992592 30.09801482-20.14625185 49.39472592-20.14625185 19.17534815 0 35.43798518 6.79632592 48.78791112 20.14625185 13.34992592 13.34992592 20.14625185 29.73392592 20.14625185 49.03063703 0 19.41807408-6.79632592 35.68071111-20.14625185 49.03063705L535.30168889 361.87401482l126.82429629 126.82429629 217.36106667-216.75425186c13.71401482-13.34992592 30.09801482-20.14625185 49.39472593-20.14625184 18.81125925 0.12136297 35.0738963 6.79632592 48.54518519 20.14625184z" fill="#ffffff" p-id="91550"></path>
</svg>