<svg t="1626417678364" class="icon" viewBox="0 0 1024 1024" version="1.1" xmlns="http://www.w3.org/2000/svg" p-id="2025" width="128" height="128">
  <path d="M611.669333 928.426667c-52.906667 0-157.696-12.970667-207.872-107.178667h-1.365333c-26.282667 0-78.506667-2.389333-137.898667-19.456-112.298667-31.744-197.632-99.328-246.442666-195.242667l-6.144-11.946666 6.826666-11.264c1.365333-2.389333 36.181333-59.392 97.962667-113.664 77.482667-67.925333 163.84-100.693333 250.197333-95.232 5.461333-12.970667 15.36-30.378667 32.426667-46.421334 28.330667-27.306667 82.602667-56.661333 180.906667-41.984l38.570666 5.802667-87.04 122.538667c47.445333 25.941333 160.768 78.506667 209.237334 21.845333 60.074667-70.656-78.848-198.997333-80.213334-200.362667l-43.690666-39.594666 59.050666-2.048c1.706667 0 168.96-7.509333 278.528-92.842667l28.330667-22.186667 9.557333 34.474667c2.389333 9.216 61.098667 230.4-53.248 430.08-68.266667 119.125333-182.954667 204.117333-341.333333 253.610667l84.992 124.586666-38.570667 5.12c-2.730667-0.341333-14.677333 1.365333-32.768 1.365334z m-177.834666-156.672l6.826666 15.701333c31.744 73.386667 107.861333 90.112 155.648 92.842667l-75.776-110.933334 32.426667-8.874666c162.474667-44.032 278.186667-124.928 344.405333-240.298667 79.530667-138.922667 66.56-292.864 55.637334-359.765333-77.824 48.810667-169.301333 68.608-224.597334 76.458666 46.421333 53.248 114.005333 153.6 49.152 230.058667-26.282667 31.061333-61.781333 41.984-98.986666 41.984-89.088 0-188.074667-63.488-194.218667-67.242667l-20.821333-13.653333 69.973333-98.304c-43.349333-0.341333-77.824 10.581333-100.693333 32.426667-20.48 19.797333-25.258667 41.642667-25.258667 41.984l-4.096 22.186666-22.528-2.730666c-166.229333-21.162667-283.989333 130.389333-313.344 173.397333 107.178667 190.805333 347.477333 176.128 349.866667 176.128l16.384-1.365333z" fill="#000" p-id="2026"></path>
  <path d="M281.6 806.229333l-13.312-3.413333c-114.346667-31.061333-200.704-98.986667-250.197333-196.266667l-6.144-11.946666 6.826666-11.264c3.754667-6.144 91.136-149.845333 239.274667-195.925334l12.970667-4.096 10.24 9.216c3.754667 3.413333 7.509333 6.826667 10.922666 10.581334 108.202667 108.202667 108.202667 284.672 0 392.874666l-10.581333 10.24z m-214.698667-209.578666C109.226667 672.426667 176.469333 724.650667 267.264 752.64c80.554667-90.112 77.824-228.352-8.192-315.050667C158.037333 474.453333 88.746667 565.248 66.901333 596.650667zM850.944 497.664c8.874667-25.6 17.408-49.152 24.576-72.362667 7.168-23.210667 13.653333-45.738667 17.749333-68.266666 4.096-22.528 6.485333-45.397333 6.144-68.608 0-23.552-3.072-47.445333-6.485333-74.752 10.581333 8.874667 19.456 19.114667 26.624 31.061333 3.754667 5.802667 6.826667 11.946667 9.898667 18.432 1.365333 3.072 2.730667 6.485333 3.754666 9.557333 1.365333 3.413333 2.389333 6.485333 3.413334 9.898667 7.850667 26.965333 8.874667 55.978667 3.754666 83.285333-5.12 27.648-16.042667 53.589333-31.061333 76.117334-7.509333 11.264-16.042667 21.845333-25.6 31.402666-4.778667 4.778667-9.898667 9.216-15.36 13.312-5.802667 4.096-11.264 7.850667-17.408 10.922667z" fill="#000" p-id="2027"></path>
  <path d="M834.901333 418.816c-3.754667-17.408-5.12-32.085333-6.826666-46.08l-3.754667-38.912c-0.682667-6.144-1.365333-12.288-2.389333-18.090667-0.682667-6.144-1.706667-11.946667-3.072-18.432-2.048-12.629333-6.144-25.941333-10.922667-43.008 4.437333 0.682667 8.874667 1.365333 12.970667 3.072 2.048 0.682667 4.096 1.706667 6.144 2.389334 2.048 1.024 3.754667 2.048 5.802666 3.072 7.509333 4.437333 14.336 10.581333 19.797334 17.408 5.461333 6.826667 9.898667 14.677333 13.312 23.210666 3.072 8.192 5.461333 17.066667 6.144 25.6 1.706667 17.408-0.682667 34.474667-6.826667 49.834667-3.072 7.850667-7.168 15.018667-11.946667 21.845333-5.12 6.826667-10.922667 12.970667-18.432 18.090667zM198.997333 588.458667c-10.581333 0-19.114667-8.533333-19.114666-19.114667 0-10.581333 8.533333-19.114667 19.114666-19.114667s19.114667 8.533333 19.114667 19.114667c0 10.581333-8.533333 19.114667-19.114667 19.114667z" fill="#000" p-id="2028"></path>
  <text fill="#000" stroke="#fff" stroke-width="0" opacity="1" x="400" y="650" id="svg_4" font-size="150">
    Mac
  </text>
</svg>